%TF.GenerationSoftware,KiCad,Pcbnew,9.0.1*%
%TF.CreationDate,2025-05-14T18:29:24+05:30*%
%TF.ProjectId,usb,7573622e-6b69-4636-9164-5f7063625858,rev?*%
%TF.SameCoordinates,Original*%
%TF.FileFunction,Copper,L2,Bot*%
%TF.FilePolarity,Positive*%
%FSLAX46Y46*%
G04 Gerber Fmt 4.6, Leading zero omitted, Abs format (unit mm)*
G04 Created by KiCad (PCBNEW 9.0.1) date 2025-05-14 18:29:24*
%MOMM*%
%LPD*%
G01*
G04 APERTURE LIST*
%TA.AperFunction,ComponentPad*%
%ADD10C,4.000000*%
%TD*%
%TA.AperFunction,ComponentPad*%
%ADD11R,1.600000X1.600000*%
%TD*%
%TA.AperFunction,ComponentPad*%
%ADD12C,1.600000*%
%TD*%
%TA.AperFunction,ComponentPad*%
%ADD13C,0.800000*%
%TD*%
%TA.AperFunction,ComponentPad*%
%ADD14C,6.400000*%
%TD*%
G04 APERTURE END LIST*
D10*
%TO.P,J2,0,PAD*%
%TO.N,unconnected-(J2-PAD-Pad0)_1*%
X153230000Y-82525001D03*
%TO.N,unconnected-(J2-PAD-Pad0)*%
X178230000Y-82525001D03*
D11*
%TO.P,J2,1,1*%
%TO.N,unconnected-(J2-Pad1)*%
X171270000Y-79685001D03*
D12*
%TO.P,J2,2,2*%
%TO.N,Net-(U2-R1IN)*%
X168500000Y-79685001D03*
%TO.P,J2,3,3*%
%TO.N,Net-(U2-T1OUT)*%
X165730000Y-79685001D03*
%TO.P,J2,4,4*%
%TO.N,unconnected-(J2-Pad4)*%
X162960000Y-79685001D03*
%TO.P,J2,5,5*%
%TO.N,GND*%
X160190000Y-79685001D03*
%TO.P,J2,6,6*%
%TO.N,unconnected-(J2-Pad6)*%
X169885000Y-82525001D03*
%TO.P,J2,7,7*%
%TO.N,unconnected-(J2-Pad7)*%
X167115000Y-82525001D03*
%TO.P,J2,8,8*%
%TO.N,unconnected-(J2-Pad8)*%
X164345000Y-82525001D03*
%TO.P,J2,9,9*%
%TO.N,unconnected-(J2-Pad9)*%
X161575000Y-82525001D03*
%TD*%
D13*
%TO.P,H1,1,1*%
%TO.N,unconnected-(H1-Pad1)_6*%
X117702944Y-51802944D03*
%TO.N,unconnected-(H1-Pad1)_1*%
X117000000Y-53500000D03*
%TO.N,unconnected-(H1-Pad1)_2*%
X117000000Y-50105888D03*
%TO.N,unconnected-(H1-Pad1)_3*%
X115302944Y-54202944D03*
D14*
%TO.N,unconnected-(H1-Pad1)_7*%
X115302944Y-51802944D03*
D13*
%TO.N,unconnected-(H1-Pad1)_8*%
X115302944Y-49402944D03*
%TO.N,unconnected-(H1-Pad1)_5*%
X113605888Y-53500000D03*
%TO.N,unconnected-(H1-Pad1)*%
X113605888Y-50105888D03*
%TO.N,unconnected-(H1-Pad1)_4*%
X112902944Y-51802944D03*
%TD*%
%TO.P,H2,1,1*%
%TO.N,unconnected-(H2-Pad1)_8*%
X193400000Y-51100000D03*
%TO.N,unconnected-(H2-Pad1)_2*%
X192697056Y-52797056D03*
%TO.N,unconnected-(H2-Pad1)_4*%
X192697056Y-49402944D03*
%TO.N,unconnected-(H2-Pad1)_7*%
X191000000Y-53500000D03*
D14*
%TO.N,unconnected-(H2-Pad1)_5*%
X191000000Y-51100000D03*
D13*
%TO.N,unconnected-(H2-Pad1)_6*%
X191000000Y-48700000D03*
%TO.N,unconnected-(H2-Pad1)_3*%
X189302944Y-52797056D03*
%TO.N,unconnected-(H2-Pad1)*%
X189302944Y-49402944D03*
%TO.N,unconnected-(H2-Pad1)_1*%
X188600000Y-51100000D03*
%TD*%
%TO.P,H3,1,1*%
%TO.N,unconnected-(H3-Pad1)_4*%
X116900000Y-101000000D03*
%TO.N,unconnected-(H3-Pad1)_7*%
X116197056Y-102697056D03*
%TO.N,unconnected-(H3-Pad1)_8*%
X116197056Y-99302944D03*
%TO.N,unconnected-(H3-Pad1)*%
X114500000Y-103400000D03*
D14*
%TO.N,unconnected-(H3-Pad1)_2*%
X114500000Y-101000000D03*
D13*
%TO.N,unconnected-(H3-Pad1)_3*%
X114500000Y-98600000D03*
%TO.N,unconnected-(H3-Pad1)_5*%
X112802944Y-102697056D03*
%TO.N,unconnected-(H3-Pad1)_1*%
X112802944Y-99302944D03*
%TO.N,unconnected-(H3-Pad1)_6*%
X112100000Y-101000000D03*
%TD*%
%TO.P,H4,1,1*%
%TO.N,unconnected-(H4-Pad1)_6*%
X190402944Y-100802944D03*
%TO.N,unconnected-(H4-Pad1)_7*%
X191105888Y-99105888D03*
%TO.N,unconnected-(H4-Pad1)_1*%
X191105888Y-102500000D03*
%TO.N,unconnected-(H4-Pad1)_8*%
X192802944Y-98402944D03*
D14*
%TO.N,unconnected-(H4-Pad1)_3*%
X192802944Y-100802944D03*
D13*
%TO.N,unconnected-(H4-Pad1)_4*%
X192802944Y-103202944D03*
%TO.N,unconnected-(H4-Pad1)*%
X194500000Y-99105888D03*
%TO.N,unconnected-(H4-Pad1)_5*%
X194500000Y-102500000D03*
%TO.N,unconnected-(H4-Pad1)_2*%
X195202944Y-100802944D03*
%TD*%
D11*
%TO.P,J1,1,VBUS*%
%TO.N,+5V*%
X135517500Y-74775001D03*
D12*
%TO.P,J1,2,D-*%
%TO.N,/USB_D-*%
X135517500Y-72275001D03*
%TO.P,J1,3,D+*%
%TO.N,/USB_D+*%
X133517500Y-72275001D03*
%TO.P,J1,4,GND*%
%TO.N,GND*%
X133517500Y-74775001D03*
D10*
%TO.P,J1,5,Shield*%
%TO.N,unconnected-(J1-Shield-Pad5)_1*%
X130657500Y-79525001D03*
%TO.N,unconnected-(J1-Shield-Pad5)*%
X130657500Y-67525001D03*
%TD*%
%TA.AperFunction,Conductor*%
%TO.N,GND*%
G36*
X199376670Y-45499336D02*
G01*
X199443599Y-45519380D01*
X199489070Y-45572430D01*
X199500000Y-45623334D01*
X199500000Y-113876000D01*
X199480315Y-113943039D01*
X199427511Y-113988794D01*
X199376000Y-114000000D01*
X106624000Y-114000000D01*
X106556961Y-113980315D01*
X106511206Y-113927511D01*
X106500000Y-113876000D01*
X106500000Y-100818209D01*
X110799500Y-100818209D01*
X110799500Y-101181790D01*
X110835137Y-101543630D01*
X110906064Y-101900212D01*
X110906067Y-101900223D01*
X111011614Y-102248165D01*
X111150754Y-102584078D01*
X111150756Y-102584083D01*
X111322140Y-102904720D01*
X111322151Y-102904738D01*
X111524140Y-103207035D01*
X111524150Y-103207049D01*
X111754807Y-103488106D01*
X112011893Y-103745192D01*
X112011898Y-103745196D01*
X112011899Y-103745197D01*
X112292956Y-103975854D01*
X112595268Y-104177853D01*
X112595277Y-104177858D01*
X112595279Y-104177859D01*
X112915916Y-104349243D01*
X112915918Y-104349243D01*
X112915924Y-104349247D01*
X113251836Y-104488386D01*
X113599767Y-104593930D01*
X113599773Y-104593931D01*
X113599776Y-104593932D01*
X113599787Y-104593935D01*
X113956369Y-104664862D01*
X114318206Y-104700500D01*
X114318209Y-104700500D01*
X114681791Y-104700500D01*
X114681794Y-104700500D01*
X115043631Y-104664862D01*
X115113045Y-104651054D01*
X115400212Y-104593935D01*
X115400223Y-104593932D01*
X115400223Y-104593931D01*
X115400233Y-104593930D01*
X115748164Y-104488386D01*
X116084076Y-104349247D01*
X116404732Y-104177853D01*
X116707044Y-103975854D01*
X116988101Y-103745197D01*
X117245197Y-103488101D01*
X117475854Y-103207044D01*
X117677853Y-102904732D01*
X117849247Y-102584076D01*
X117988386Y-102248164D01*
X118093930Y-101900233D01*
X118093932Y-101900223D01*
X118093935Y-101900212D01*
X118164862Y-101543630D01*
X118184270Y-101346575D01*
X118200500Y-101181794D01*
X118200500Y-100818206D01*
X118181092Y-100621153D01*
X189102444Y-100621153D01*
X189102444Y-100984734D01*
X189138081Y-101346574D01*
X189209008Y-101703156D01*
X189209011Y-101703167D01*
X189314558Y-102051109D01*
X189453698Y-102387022D01*
X189453700Y-102387027D01*
X189625084Y-102707664D01*
X189625095Y-102707682D01*
X189827084Y-103009979D01*
X189827094Y-103009993D01*
X190057751Y-103291050D01*
X190314837Y-103548136D01*
X190314842Y-103548140D01*
X190314843Y-103548141D01*
X190595900Y-103778798D01*
X190898212Y-103980797D01*
X190898221Y-103980802D01*
X190898223Y-103980803D01*
X191218860Y-104152187D01*
X191218862Y-104152187D01*
X191218868Y-104152191D01*
X191554780Y-104291330D01*
X191902711Y-104396874D01*
X191902717Y-104396875D01*
X191902720Y-104396876D01*
X191902731Y-104396879D01*
X192259313Y-104467806D01*
X192621150Y-104503444D01*
X192621153Y-104503444D01*
X192984735Y-104503444D01*
X192984738Y-104503444D01*
X193346575Y-104467806D01*
X193415989Y-104453998D01*
X193703156Y-104396879D01*
X193703167Y-104396876D01*
X193703167Y-104396875D01*
X193703177Y-104396874D01*
X194051108Y-104291330D01*
X194387020Y-104152191D01*
X194707676Y-103980797D01*
X195009988Y-103778798D01*
X195291045Y-103548141D01*
X195548141Y-103291045D01*
X195778798Y-103009988D01*
X195980797Y-102707676D01*
X196152191Y-102387020D01*
X196291330Y-102051108D01*
X196396874Y-101703177D01*
X196396876Y-101703167D01*
X196396879Y-101703156D01*
X196467806Y-101346574D01*
X196503444Y-100984738D01*
X196503444Y-100621150D01*
X196467806Y-100259313D01*
X196436075Y-100099787D01*
X196396879Y-99902731D01*
X196396876Y-99902720D01*
X196396875Y-99902717D01*
X196396874Y-99902711D01*
X196291330Y-99554780D01*
X196152191Y-99218868D01*
X196086131Y-99095279D01*
X195980803Y-98898223D01*
X195980802Y-98898221D01*
X195980797Y-98898212D01*
X195778798Y-98595900D01*
X195548141Y-98314843D01*
X195548140Y-98314842D01*
X195548136Y-98314837D01*
X195291050Y-98057751D01*
X195009993Y-97827094D01*
X195009992Y-97827093D01*
X195009988Y-97827090D01*
X194707676Y-97625091D01*
X194707671Y-97625088D01*
X194707664Y-97625084D01*
X194387027Y-97453700D01*
X194387022Y-97453698D01*
X194051109Y-97314558D01*
X193703167Y-97209011D01*
X193703156Y-97209008D01*
X193346574Y-97138081D01*
X193074055Y-97111240D01*
X192984738Y-97102444D01*
X192621150Y-97102444D01*
X192538623Y-97110572D01*
X192259313Y-97138081D01*
X191902731Y-97209008D01*
X191902720Y-97209011D01*
X191554778Y-97314558D01*
X191218865Y-97453698D01*
X191218860Y-97453700D01*
X190898223Y-97625084D01*
X190898205Y-97625095D01*
X190595908Y-97827084D01*
X190595894Y-97827094D01*
X190314837Y-98057751D01*
X190057751Y-98314837D01*
X189827094Y-98595894D01*
X189827084Y-98595908D01*
X189625095Y-98898205D01*
X189625084Y-98898223D01*
X189453700Y-99218860D01*
X189453698Y-99218865D01*
X189314558Y-99554778D01*
X189209011Y-99902720D01*
X189209008Y-99902731D01*
X189138081Y-100259313D01*
X189102444Y-100621153D01*
X118181092Y-100621153D01*
X118164862Y-100456369D01*
X118093935Y-100099787D01*
X118093932Y-100099776D01*
X118093931Y-100099773D01*
X118093930Y-100099767D01*
X117988386Y-99751836D01*
X117849247Y-99415924D01*
X117743918Y-99218868D01*
X117677859Y-99095279D01*
X117677858Y-99095277D01*
X117677853Y-99095268D01*
X117475854Y-98792956D01*
X117245197Y-98511899D01*
X117245196Y-98511898D01*
X117245192Y-98511893D01*
X116988106Y-98254807D01*
X116707049Y-98024150D01*
X116707048Y-98024149D01*
X116707044Y-98024146D01*
X116404732Y-97822147D01*
X116404727Y-97822144D01*
X116404720Y-97822140D01*
X116084083Y-97650756D01*
X116084078Y-97650754D01*
X115748165Y-97511614D01*
X115400223Y-97406067D01*
X115400212Y-97406064D01*
X115043630Y-97335137D01*
X114771111Y-97308296D01*
X114681794Y-97299500D01*
X114318206Y-97299500D01*
X114235679Y-97307628D01*
X113956369Y-97335137D01*
X113599787Y-97406064D01*
X113599776Y-97406067D01*
X113251834Y-97511614D01*
X112915921Y-97650754D01*
X112915916Y-97650756D01*
X112595279Y-97822140D01*
X112595261Y-97822151D01*
X112292964Y-98024140D01*
X112292950Y-98024150D01*
X112011893Y-98254807D01*
X111754807Y-98511893D01*
X111524150Y-98792950D01*
X111524140Y-98792964D01*
X111322151Y-99095261D01*
X111322140Y-99095279D01*
X111150756Y-99415916D01*
X111150754Y-99415921D01*
X111011614Y-99751834D01*
X110906067Y-100099776D01*
X110906064Y-100099787D01*
X110835137Y-100456369D01*
X110799500Y-100818209D01*
X106500000Y-100818209D01*
X106500000Y-82384569D01*
X150729500Y-82384569D01*
X150729500Y-82665432D01*
X150760942Y-82944495D01*
X150760945Y-82944513D01*
X150823439Y-83218318D01*
X150823443Y-83218330D01*
X150916200Y-83483412D01*
X151038053Y-83736443D01*
X151038055Y-83736446D01*
X151187477Y-83974249D01*
X151362584Y-84193826D01*
X151561175Y-84392417D01*
X151780752Y-84567524D01*
X152018555Y-84716946D01*
X152271592Y-84838802D01*
X152470680Y-84908466D01*
X152536670Y-84931557D01*
X152536682Y-84931561D01*
X152810491Y-84994056D01*
X152810497Y-84994056D01*
X152810505Y-84994058D01*
X152996547Y-85015019D01*
X153089569Y-85025500D01*
X153089572Y-85025501D01*
X153089575Y-85025501D01*
X153370428Y-85025501D01*
X153370429Y-85025500D01*
X153513055Y-85009430D01*
X153649494Y-84994058D01*
X153649499Y-84994057D01*
X153649509Y-84994056D01*
X153923318Y-84931561D01*
X154188408Y-84838802D01*
X154441445Y-84716946D01*
X154679248Y-84567524D01*
X154898825Y-84392417D01*
X155097416Y-84193826D01*
X155272523Y-83974249D01*
X155421945Y-83736446D01*
X155543801Y-83483409D01*
X155636560Y-83218319D01*
X155699055Y-82944510D01*
X155712010Y-82829535D01*
X155714429Y-82808056D01*
X155730500Y-82665426D01*
X155730500Y-82422649D01*
X160274500Y-82422649D01*
X160274500Y-82627352D01*
X160306522Y-82829535D01*
X160369781Y-83024224D01*
X160462715Y-83206614D01*
X160583028Y-83372214D01*
X160727786Y-83516972D01*
X160882749Y-83629557D01*
X160893390Y-83637288D01*
X161009607Y-83696504D01*
X161075776Y-83730219D01*
X161075778Y-83730219D01*
X161075781Y-83730221D01*
X161180137Y-83764128D01*
X161270465Y-83793478D01*
X161371557Y-83809489D01*
X161472648Y-83825501D01*
X161472649Y-83825501D01*
X161677351Y-83825501D01*
X161677352Y-83825501D01*
X161879534Y-83793478D01*
X162074219Y-83730221D01*
X162256610Y-83637288D01*
X162349590Y-83569733D01*
X162422213Y-83516972D01*
X162422215Y-83516969D01*
X162422219Y-83516967D01*
X162566966Y-83372220D01*
X162566968Y-83372216D01*
X162566971Y-83372214D01*
X162619732Y-83299591D01*
X162687287Y-83206611D01*
X162780220Y-83024220D01*
X162842069Y-82833869D01*
X162881507Y-82776194D01*
X162945866Y-82748996D01*
X163014712Y-82760911D01*
X163066188Y-82808155D01*
X163077931Y-82833869D01*
X163139781Y-83024224D01*
X163232715Y-83206614D01*
X163353028Y-83372214D01*
X163497786Y-83516972D01*
X163652749Y-83629557D01*
X163663390Y-83637288D01*
X163779607Y-83696504D01*
X163845776Y-83730219D01*
X163845778Y-83730219D01*
X163845781Y-83730221D01*
X163950137Y-83764128D01*
X164040465Y-83793478D01*
X164141557Y-83809489D01*
X164242648Y-83825501D01*
X164242649Y-83825501D01*
X164447351Y-83825501D01*
X164447352Y-83825501D01*
X164649534Y-83793478D01*
X164844219Y-83730221D01*
X165026610Y-83637288D01*
X165119590Y-83569733D01*
X165192213Y-83516972D01*
X165192215Y-83516969D01*
X165192219Y-83516967D01*
X165336966Y-83372220D01*
X165336968Y-83372216D01*
X165336971Y-83372214D01*
X165389732Y-83299591D01*
X165457287Y-83206611D01*
X165550220Y-83024220D01*
X165612069Y-82833869D01*
X165651507Y-82776194D01*
X165715866Y-82748996D01*
X165784712Y-82760911D01*
X165836188Y-82808155D01*
X165847931Y-82833869D01*
X165909781Y-83024224D01*
X166002715Y-83206614D01*
X166123028Y-83372214D01*
X166267786Y-83516972D01*
X166422749Y-83629557D01*
X166433390Y-83637288D01*
X166549607Y-83696504D01*
X166615776Y-83730219D01*
X166615778Y-83730219D01*
X166615781Y-83730221D01*
X166720137Y-83764128D01*
X166810465Y-83793478D01*
X166911557Y-83809489D01*
X167012648Y-83825501D01*
X167012649Y-83825501D01*
X167217351Y-83825501D01*
X167217352Y-83825501D01*
X167419534Y-83793478D01*
X167614219Y-83730221D01*
X167796610Y-83637288D01*
X167889590Y-83569733D01*
X167962213Y-83516972D01*
X167962215Y-83516969D01*
X167962219Y-83516967D01*
X168106966Y-83372220D01*
X168106968Y-83372216D01*
X168106971Y-83372214D01*
X168159732Y-83299591D01*
X168227287Y-83206611D01*
X168320220Y-83024220D01*
X168382069Y-82833869D01*
X168421507Y-82776194D01*
X168485866Y-82748996D01*
X168554712Y-82760911D01*
X168606188Y-82808155D01*
X168617931Y-82833869D01*
X168679781Y-83024224D01*
X168772715Y-83206614D01*
X168893028Y-83372214D01*
X169037786Y-83516972D01*
X169192749Y-83629557D01*
X169203390Y-83637288D01*
X169319607Y-83696504D01*
X169385776Y-83730219D01*
X169385778Y-83730219D01*
X169385781Y-83730221D01*
X169490137Y-83764128D01*
X169580465Y-83793478D01*
X169681557Y-83809489D01*
X169782648Y-83825501D01*
X169782649Y-83825501D01*
X169987351Y-83825501D01*
X169987352Y-83825501D01*
X170189534Y-83793478D01*
X170384219Y-83730221D01*
X170566610Y-83637288D01*
X170659590Y-83569733D01*
X170732213Y-83516972D01*
X170732215Y-83516969D01*
X170732219Y-83516967D01*
X170876966Y-83372220D01*
X170876968Y-83372216D01*
X170876971Y-83372214D01*
X170929732Y-83299591D01*
X170997287Y-83206611D01*
X171090220Y-83024220D01*
X171153477Y-82829535D01*
X171185500Y-82627353D01*
X171185500Y-82422649D01*
X171179469Y-82384569D01*
X175729500Y-82384569D01*
X175729500Y-82665432D01*
X175760942Y-82944495D01*
X175760945Y-82944513D01*
X175823439Y-83218318D01*
X175823443Y-83218330D01*
X175916200Y-83483412D01*
X176038053Y-83736443D01*
X176038055Y-83736446D01*
X176187477Y-83974249D01*
X176362584Y-84193826D01*
X176561175Y-84392417D01*
X176780752Y-84567524D01*
X177018555Y-84716946D01*
X177271592Y-84838802D01*
X177470680Y-84908466D01*
X177536670Y-84931557D01*
X177536682Y-84931561D01*
X177810491Y-84994056D01*
X177810497Y-84994056D01*
X177810505Y-84994058D01*
X177996547Y-85015019D01*
X178089569Y-85025500D01*
X178089572Y-85025501D01*
X178089575Y-85025501D01*
X178370428Y-85025501D01*
X178370429Y-85025500D01*
X178513055Y-85009430D01*
X178649494Y-84994058D01*
X178649499Y-84994057D01*
X178649509Y-84994056D01*
X178923318Y-84931561D01*
X179188408Y-84838802D01*
X179441445Y-84716946D01*
X179679248Y-84567524D01*
X179898825Y-84392417D01*
X180097416Y-84193826D01*
X180272523Y-83974249D01*
X180421945Y-83736446D01*
X180543801Y-83483409D01*
X180636560Y-83218319D01*
X180699055Y-82944510D01*
X180712010Y-82829535D01*
X180714429Y-82808056D01*
X180730500Y-82665426D01*
X180730500Y-82384576D01*
X180714418Y-82241846D01*
X180699057Y-82105506D01*
X180699054Y-82105488D01*
X180673620Y-81994056D01*
X180636560Y-81831683D01*
X180543801Y-81566593D01*
X180421945Y-81313556D01*
X180272523Y-81075753D01*
X180097416Y-80856176D01*
X179898825Y-80657585D01*
X179679248Y-80482478D01*
X179441445Y-80333056D01*
X179441442Y-80333054D01*
X179188411Y-80211201D01*
X178923329Y-80118444D01*
X178923317Y-80118440D01*
X178649512Y-80055946D01*
X178649494Y-80055943D01*
X178370431Y-80024501D01*
X178370425Y-80024501D01*
X178089575Y-80024501D01*
X178089568Y-80024501D01*
X177810505Y-80055943D01*
X177810487Y-80055946D01*
X177536682Y-80118440D01*
X177536670Y-80118444D01*
X177271588Y-80211201D01*
X177018557Y-80333054D01*
X176780753Y-80482477D01*
X176561175Y-80657584D01*
X176362583Y-80856176D01*
X176187476Y-81075754D01*
X176038053Y-81313558D01*
X175916200Y-81566589D01*
X175823443Y-81831671D01*
X175823439Y-81831683D01*
X175760945Y-82105488D01*
X175760942Y-82105506D01*
X175729500Y-82384569D01*
X171179469Y-82384569D01*
X171153477Y-82220467D01*
X171152068Y-82216132D01*
X171090218Y-82025777D01*
X171042210Y-81931557D01*
X170997287Y-81843391D01*
X170988772Y-81831671D01*
X170876971Y-81677787D01*
X170732213Y-81533029D01*
X170566613Y-81412716D01*
X170566612Y-81412715D01*
X170566610Y-81412714D01*
X170509653Y-81383692D01*
X170384223Y-81319782D01*
X170189534Y-81256523D01*
X170014995Y-81228879D01*
X169987352Y-81224501D01*
X169782648Y-81224501D01*
X169758329Y-81228352D01*
X169580465Y-81256523D01*
X169385776Y-81319782D01*
X169203386Y-81412716D01*
X169037786Y-81533029D01*
X168893028Y-81677787D01*
X168772715Y-81843387D01*
X168679781Y-82025777D01*
X168617931Y-82216132D01*
X168578493Y-82273807D01*
X168514134Y-82301005D01*
X168445288Y-82289090D01*
X168393812Y-82241846D01*
X168382069Y-82216132D01*
X168320218Y-82025777D01*
X168272210Y-81931557D01*
X168227287Y-81843391D01*
X168218772Y-81831671D01*
X168106971Y-81677787D01*
X167962213Y-81533029D01*
X167796613Y-81412716D01*
X167796612Y-81412715D01*
X167796610Y-81412714D01*
X167739653Y-81383692D01*
X167614223Y-81319782D01*
X167419534Y-81256523D01*
X167244995Y-81228879D01*
X167217352Y-81224501D01*
X167012648Y-81224501D01*
X166988329Y-81228352D01*
X166810465Y-81256523D01*
X166615776Y-81319782D01*
X166433386Y-81412716D01*
X166267786Y-81533029D01*
X166123028Y-81677787D01*
X166002715Y-81843387D01*
X165909781Y-82025777D01*
X165847931Y-82216132D01*
X165808493Y-82273807D01*
X165744134Y-82301005D01*
X165675288Y-82289090D01*
X165623812Y-82241846D01*
X165612069Y-82216132D01*
X165550218Y-82025777D01*
X165502210Y-81931557D01*
X165457287Y-81843391D01*
X165448772Y-81831671D01*
X165336971Y-81677787D01*
X165192213Y-81533029D01*
X165026613Y-81412716D01*
X165026612Y-81412715D01*
X165026610Y-81412714D01*
X164969653Y-81383692D01*
X164844223Y-81319782D01*
X164649534Y-81256523D01*
X164474995Y-81228879D01*
X164447352Y-81224501D01*
X164242648Y-81224501D01*
X164218329Y-81228352D01*
X164040465Y-81256523D01*
X163845776Y-81319782D01*
X163663386Y-81412716D01*
X163497786Y-81533029D01*
X163353028Y-81677787D01*
X163232715Y-81843387D01*
X163139781Y-82025777D01*
X163077931Y-82216132D01*
X163038493Y-82273807D01*
X162974134Y-82301005D01*
X162905288Y-82289090D01*
X162853812Y-82241846D01*
X162842069Y-82216132D01*
X162780218Y-82025777D01*
X162732210Y-81931557D01*
X162687287Y-81843391D01*
X162678772Y-81831671D01*
X162566971Y-81677787D01*
X162422213Y-81533029D01*
X162256613Y-81412716D01*
X162256612Y-81412715D01*
X162256610Y-81412714D01*
X162199653Y-81383692D01*
X162074223Y-81319782D01*
X161879534Y-81256523D01*
X161704995Y-81228879D01*
X161677352Y-81224501D01*
X161472648Y-81224501D01*
X161448329Y-81228352D01*
X161270465Y-81256523D01*
X161075776Y-81319782D01*
X160893386Y-81412716D01*
X160727786Y-81533029D01*
X160583028Y-81677787D01*
X160462715Y-81843387D01*
X160369781Y-82025777D01*
X160306522Y-82220466D01*
X160274500Y-82422649D01*
X155730500Y-82422649D01*
X155730500Y-82384576D01*
X155714418Y-82241846D01*
X155699057Y-82105506D01*
X155699054Y-82105488D01*
X155673620Y-81994056D01*
X155636560Y-81831683D01*
X155543801Y-81566593D01*
X155421945Y-81313556D01*
X155272523Y-81075753D01*
X155097416Y-80856176D01*
X154898825Y-80657585D01*
X154679248Y-80482478D01*
X154441445Y-80333056D01*
X154441442Y-80333054D01*
X154188411Y-80211201D01*
X153923329Y-80118444D01*
X153923317Y-80118440D01*
X153649512Y-80055946D01*
X153649494Y-80055943D01*
X153370431Y-80024501D01*
X153370425Y-80024501D01*
X153089575Y-80024501D01*
X153089568Y-80024501D01*
X152810505Y-80055943D01*
X152810487Y-80055946D01*
X152536682Y-80118440D01*
X152536670Y-80118444D01*
X152271588Y-80211201D01*
X152018557Y-80333054D01*
X151780753Y-80482477D01*
X151561175Y-80657584D01*
X151362583Y-80856176D01*
X151187476Y-81075754D01*
X151038053Y-81313558D01*
X150916200Y-81566589D01*
X150823443Y-81831671D01*
X150823439Y-81831683D01*
X150760945Y-82105488D01*
X150760942Y-82105506D01*
X150729500Y-82384569D01*
X106500000Y-82384569D01*
X106500000Y-79384569D01*
X128157000Y-79384569D01*
X128157000Y-79665432D01*
X128188442Y-79944495D01*
X128188445Y-79944513D01*
X128250939Y-80218318D01*
X128250943Y-80218330D01*
X128343700Y-80483412D01*
X128465553Y-80736443D01*
X128465555Y-80736446D01*
X128614977Y-80974249D01*
X128790084Y-81193826D01*
X128988675Y-81392417D01*
X129208252Y-81567524D01*
X129446055Y-81716946D01*
X129699092Y-81838802D01*
X129898180Y-81908466D01*
X129964170Y-81931557D01*
X129964182Y-81931561D01*
X130237991Y-81994056D01*
X130237997Y-81994056D01*
X130238005Y-81994058D01*
X130424047Y-82015019D01*
X130517069Y-82025500D01*
X130517072Y-82025501D01*
X130517075Y-82025501D01*
X130797928Y-82025501D01*
X130797929Y-82025500D01*
X130940555Y-82009430D01*
X131076994Y-81994058D01*
X131076999Y-81994057D01*
X131077009Y-81994056D01*
X131350818Y-81931561D01*
X131615908Y-81838802D01*
X131868945Y-81716946D01*
X132106748Y-81567524D01*
X132326325Y-81392417D01*
X132524916Y-81193826D01*
X132700023Y-80974249D01*
X132849445Y-80736446D01*
X132971301Y-80483409D01*
X133064060Y-80218319D01*
X133126555Y-79944510D01*
X133130557Y-79908996D01*
X133155794Y-79685001D01*
X133158000Y-79665426D01*
X133158000Y-79582683D01*
X158890000Y-79582683D01*
X158890000Y-79787318D01*
X158922009Y-79989418D01*
X158985244Y-80184032D01*
X159078141Y-80366351D01*
X159078147Y-80366360D01*
X159110523Y-80410922D01*
X159110524Y-80410923D01*
X159707037Y-79814410D01*
X159724075Y-79877994D01*
X159789901Y-79992008D01*
X159882993Y-80085100D01*
X159997007Y-80150926D01*
X160060590Y-80167963D01*
X159464076Y-80764475D01*
X159508650Y-80796860D01*
X159690968Y-80889756D01*
X159885582Y-80952991D01*
X160087683Y-80985001D01*
X160292317Y-80985001D01*
X160494417Y-80952991D01*
X160689031Y-80889756D01*
X160871349Y-80796860D01*
X160915921Y-80764475D01*
X160319409Y-80167963D01*
X160382993Y-80150926D01*
X160497007Y-80085100D01*
X160590099Y-79992008D01*
X160655925Y-79877994D01*
X160672962Y-79814410D01*
X161269474Y-80410922D01*
X161301859Y-80366350D01*
X161394755Y-80184030D01*
X161456806Y-79993062D01*
X161496244Y-79935386D01*
X161560602Y-79908188D01*
X161629449Y-79920103D01*
X161680924Y-79967347D01*
X161692668Y-79993061D01*
X161754781Y-80184224D01*
X161818691Y-80309654D01*
X161847585Y-80366360D01*
X161847715Y-80366614D01*
X161968028Y-80532214D01*
X162112786Y-80676972D01*
X162194647Y-80736446D01*
X162278390Y-80797288D01*
X162367212Y-80842545D01*
X162460776Y-80890219D01*
X162460778Y-80890219D01*
X162460781Y-80890221D01*
X162565137Y-80924128D01*
X162655465Y-80953478D01*
X162756557Y-80969489D01*
X162857648Y-80985501D01*
X162857649Y-80985501D01*
X163062351Y-80985501D01*
X163062352Y-80985501D01*
X163264534Y-80953478D01*
X163459219Y-80890221D01*
X163641610Y-80797288D01*
X163737901Y-80727329D01*
X163807213Y-80676972D01*
X163807215Y-80676969D01*
X163807219Y-80676967D01*
X163951966Y-80532220D01*
X163951968Y-80532216D01*
X163951971Y-80532214D01*
X164004732Y-80459591D01*
X164072287Y-80366611D01*
X164165220Y-80184220D01*
X164227069Y-79993869D01*
X164266507Y-79936194D01*
X164330866Y-79908996D01*
X164399712Y-79920911D01*
X164451188Y-79968155D01*
X164462931Y-79993869D01*
X164524781Y-80184224D01*
X164588691Y-80309654D01*
X164617585Y-80366360D01*
X164617715Y-80366614D01*
X164738028Y-80532214D01*
X164882786Y-80676972D01*
X164964647Y-80736446D01*
X165048390Y-80797288D01*
X165137212Y-80842545D01*
X165230776Y-80890219D01*
X165230778Y-80890219D01*
X165230781Y-80890221D01*
X165335137Y-80924128D01*
X165425465Y-80953478D01*
X165526557Y-80969489D01*
X165627648Y-80985501D01*
X165627649Y-80985501D01*
X165832351Y-80985501D01*
X165832352Y-80985501D01*
X166034534Y-80953478D01*
X166229219Y-80890221D01*
X166411610Y-80797288D01*
X166507901Y-80727329D01*
X166577213Y-80676972D01*
X166577215Y-80676969D01*
X166577219Y-80676967D01*
X166721966Y-80532220D01*
X166721968Y-80532216D01*
X166721971Y-80532214D01*
X166774732Y-80459591D01*
X166842287Y-80366611D01*
X166935220Y-80184220D01*
X166997069Y-79993869D01*
X167036507Y-79936194D01*
X167100866Y-79908996D01*
X167169712Y-79920911D01*
X167221188Y-79968155D01*
X167232931Y-79993869D01*
X167294781Y-80184224D01*
X167358691Y-80309654D01*
X167387585Y-80366360D01*
X167387715Y-80366614D01*
X167508028Y-80532214D01*
X167652786Y-80676972D01*
X167734647Y-80736446D01*
X167818390Y-80797288D01*
X167907212Y-80842545D01*
X168000776Y-80890219D01*
X168000778Y-80890219D01*
X168000781Y-80890221D01*
X168105137Y-80924128D01*
X168195465Y-80953478D01*
X168296557Y-80969489D01*
X168397648Y-80985501D01*
X168397649Y-80985501D01*
X168602351Y-80985501D01*
X168602352Y-80985501D01*
X168804534Y-80953478D01*
X168999219Y-80890221D01*
X169181610Y-80797288D01*
X169277901Y-80727329D01*
X169347213Y-80676972D01*
X169347215Y-80676969D01*
X169347219Y-80676967D01*
X169491966Y-80532220D01*
X169491968Y-80532216D01*
X169491971Y-80532214D01*
X169544732Y-80459591D01*
X169612287Y-80366611D01*
X169705220Y-80184220D01*
X169727570Y-80115433D01*
X169767006Y-80057759D01*
X169831364Y-80030560D01*
X169900211Y-80042474D01*
X169951687Y-80089718D01*
X169969500Y-80153752D01*
X169969500Y-80532870D01*
X169969501Y-80532877D01*
X169975908Y-80592484D01*
X170026202Y-80727329D01*
X170026206Y-80727336D01*
X170112452Y-80842545D01*
X170112455Y-80842548D01*
X170227664Y-80928794D01*
X170227671Y-80928798D01*
X170362517Y-80979092D01*
X170362516Y-80979092D01*
X170369444Y-80979836D01*
X170422127Y-80985501D01*
X172117872Y-80985500D01*
X172177483Y-80979092D01*
X172312331Y-80928797D01*
X172427546Y-80842547D01*
X172513796Y-80727332D01*
X172564091Y-80592484D01*
X172570500Y-80532874D01*
X172570499Y-78837129D01*
X172564091Y-78777518D01*
X172532843Y-78693739D01*
X172513797Y-78642672D01*
X172513793Y-78642665D01*
X172427547Y-78527456D01*
X172427544Y-78527453D01*
X172312335Y-78441207D01*
X172312328Y-78441203D01*
X172177482Y-78390909D01*
X172177483Y-78390909D01*
X172117883Y-78384502D01*
X172117881Y-78384501D01*
X172117873Y-78384501D01*
X172117864Y-78384501D01*
X170422129Y-78384501D01*
X170422123Y-78384502D01*
X170362516Y-78390909D01*
X170227671Y-78441203D01*
X170227664Y-78441207D01*
X170112455Y-78527453D01*
X170112452Y-78527456D01*
X170026206Y-78642665D01*
X170026202Y-78642672D01*
X169975908Y-78777518D01*
X169970085Y-78831683D01*
X169969501Y-78837124D01*
X169969500Y-78837136D01*
X169969500Y-79216247D01*
X169949815Y-79283286D01*
X169897011Y-79329041D01*
X169827853Y-79338985D01*
X169764297Y-79309960D01*
X169727569Y-79254566D01*
X169716038Y-79219076D01*
X169705220Y-79185782D01*
X169705218Y-79185779D01*
X169705218Y-79185777D01*
X169612419Y-79003651D01*
X169612287Y-79003391D01*
X169580092Y-78959078D01*
X169491971Y-78837787D01*
X169347213Y-78693029D01*
X169181613Y-78572716D01*
X169181612Y-78572715D01*
X169181610Y-78572714D01*
X169124653Y-78543692D01*
X168999223Y-78479782D01*
X168804534Y-78416523D01*
X168629995Y-78388879D01*
X168602352Y-78384501D01*
X168397648Y-78384501D01*
X168373329Y-78388352D01*
X168195465Y-78416523D01*
X168000776Y-78479782D01*
X167818386Y-78572716D01*
X167652786Y-78693029D01*
X167508028Y-78837787D01*
X167387715Y-79003387D01*
X167294781Y-79185777D01*
X167232931Y-79376132D01*
X167193493Y-79433807D01*
X167129134Y-79461005D01*
X167060288Y-79449090D01*
X167008812Y-79401846D01*
X166997069Y-79376132D01*
X166946038Y-79219076D01*
X166935220Y-79185782D01*
X166935218Y-79185779D01*
X166935218Y-79185777D01*
X166842419Y-79003651D01*
X166842287Y-79003391D01*
X166810092Y-78959078D01*
X166721971Y-78837787D01*
X166577213Y-78693029D01*
X166411613Y-78572716D01*
X166411612Y-78572715D01*
X166411610Y-78572714D01*
X166354653Y-78543692D01*
X166229223Y-78479782D01*
X166034534Y-78416523D01*
X165859995Y-78388879D01*
X165832352Y-78384501D01*
X165627648Y-78384501D01*
X165603329Y-78388352D01*
X165425465Y-78416523D01*
X165230776Y-78479782D01*
X165048386Y-78572716D01*
X164882786Y-78693029D01*
X164738028Y-78837787D01*
X164617715Y-79003387D01*
X164524781Y-79185777D01*
X164462931Y-79376132D01*
X164423493Y-79433807D01*
X164359134Y-79461005D01*
X164290288Y-79449090D01*
X164238812Y-79401846D01*
X164227069Y-79376132D01*
X164176038Y-79219076D01*
X164165220Y-79185782D01*
X164165218Y-79185779D01*
X164165218Y-79185777D01*
X164072419Y-79003651D01*
X164072287Y-79003391D01*
X164040092Y-78959078D01*
X163951971Y-78837787D01*
X163807213Y-78693029D01*
X163641613Y-78572716D01*
X163641612Y-78572715D01*
X163641610Y-78572714D01*
X163584653Y-78543692D01*
X163459223Y-78479782D01*
X163264534Y-78416523D01*
X163089995Y-78388879D01*
X163062352Y-78384501D01*
X162857648Y-78384501D01*
X162833329Y-78388352D01*
X162655465Y-78416523D01*
X162460776Y-78479782D01*
X162278386Y-78572716D01*
X162112786Y-78693029D01*
X161968028Y-78837787D01*
X161847715Y-79003387D01*
X161754781Y-79185777D01*
X161692668Y-79376940D01*
X161653230Y-79434615D01*
X161588871Y-79461813D01*
X161520025Y-79449898D01*
X161468549Y-79402653D01*
X161456806Y-79376940D01*
X161394755Y-79185969D01*
X161301859Y-79003651D01*
X161269474Y-78959078D01*
X161269474Y-78959077D01*
X160672962Y-79555590D01*
X160655925Y-79492008D01*
X160590099Y-79377994D01*
X160497007Y-79284902D01*
X160382993Y-79219076D01*
X160319408Y-79202038D01*
X160915922Y-78605525D01*
X160915921Y-78605524D01*
X160871359Y-78573148D01*
X160871350Y-78573142D01*
X160689031Y-78480245D01*
X160494417Y-78417010D01*
X160292317Y-78385001D01*
X160087683Y-78385001D01*
X159885582Y-78417010D01*
X159690968Y-78480245D01*
X159508644Y-78573144D01*
X159464077Y-78605524D01*
X159464077Y-78605525D01*
X160060591Y-79202038D01*
X159997007Y-79219076D01*
X159882993Y-79284902D01*
X159789901Y-79377994D01*
X159724075Y-79492008D01*
X159707037Y-79555591D01*
X159110524Y-78959078D01*
X159110523Y-78959078D01*
X159078143Y-79003645D01*
X158985244Y-79185969D01*
X158922009Y-79380583D01*
X158890000Y-79582683D01*
X133158000Y-79582683D01*
X133158000Y-79384576D01*
X133146587Y-79283286D01*
X133126557Y-79105506D01*
X133126554Y-79105488D01*
X133103310Y-79003651D01*
X133064060Y-78831683D01*
X133045107Y-78777518D01*
X133015792Y-78693739D01*
X132984924Y-78605525D01*
X132971301Y-78566593D01*
X132849445Y-78313556D01*
X132700023Y-78075753D01*
X132524916Y-77856176D01*
X132326325Y-77657585D01*
X132106748Y-77482478D01*
X131868945Y-77333056D01*
X131868942Y-77333054D01*
X131615911Y-77211201D01*
X131350829Y-77118444D01*
X131350817Y-77118440D01*
X131077012Y-77055946D01*
X131076994Y-77055943D01*
X130797931Y-77024501D01*
X130797925Y-77024501D01*
X130517075Y-77024501D01*
X130517068Y-77024501D01*
X130238005Y-77055943D01*
X130237987Y-77055946D01*
X129964182Y-77118440D01*
X129964170Y-77118444D01*
X129699088Y-77211201D01*
X129446057Y-77333054D01*
X129208253Y-77482477D01*
X128988675Y-77657584D01*
X128790083Y-77856176D01*
X128614976Y-78075754D01*
X128465553Y-78313558D01*
X128343700Y-78566589D01*
X128250943Y-78831671D01*
X128250939Y-78831683D01*
X128188445Y-79105488D01*
X128188442Y-79105506D01*
X128157000Y-79384569D01*
X106500000Y-79384569D01*
X106500000Y-72172649D01*
X132217000Y-72172649D01*
X132217000Y-72377352D01*
X132249022Y-72579535D01*
X132312281Y-72774224D01*
X132405215Y-72956614D01*
X132525528Y-73122214D01*
X132670286Y-73266972D01*
X132835885Y-73387285D01*
X132835887Y-73387286D01*
X132835890Y-73387288D01*
X132889878Y-73414796D01*
X132940674Y-73462770D01*
X132957469Y-73530591D01*
X132934932Y-73596726D01*
X132889878Y-73635766D01*
X132836144Y-73663144D01*
X132791577Y-73695524D01*
X132791577Y-73695525D01*
X133408502Y-74312450D01*
X133334157Y-74332371D01*
X133225843Y-74394906D01*
X133137405Y-74483344D01*
X133074870Y-74591658D01*
X133054949Y-74666003D01*
X132438024Y-74049078D01*
X132438023Y-74049078D01*
X132405643Y-74093645D01*
X132312744Y-74275969D01*
X132249509Y-74470583D01*
X132217500Y-74672683D01*
X132217500Y-74877318D01*
X132249509Y-75079418D01*
X132312744Y-75274032D01*
X132405641Y-75456351D01*
X132405647Y-75456360D01*
X132438023Y-75500922D01*
X132438024Y-75500923D01*
X133054949Y-74883998D01*
X133074870Y-74958344D01*
X133137405Y-75066658D01*
X133225843Y-75155096D01*
X133334157Y-75217631D01*
X133408501Y-75237551D01*
X132791576Y-75854475D01*
X132836150Y-75886860D01*
X133018468Y-75979756D01*
X133213082Y-76042991D01*
X133415183Y-76075001D01*
X133619817Y-76075001D01*
X133821917Y-76042991D01*
X134016531Y-75979756D01*
X134197706Y-75887442D01*
X134266375Y-75874546D01*
X134331115Y-75900822D01*
X134353267Y-75923615D01*
X134359950Y-75932543D01*
X134359952Y-75932545D01*
X134359954Y-75932547D01*
X134359957Y-75932549D01*
X134475164Y-76018794D01*
X134475171Y-76018798D01*
X134610017Y-76069092D01*
X134610016Y-76069092D01*
X134616944Y-76069836D01*
X134669627Y-76075501D01*
X136365372Y-76075500D01*
X136424983Y-76069092D01*
X136559831Y-76018797D01*
X136675046Y-75932547D01*
X136761296Y-75817332D01*
X136811591Y-75682484D01*
X136818000Y-75622874D01*
X136817999Y-73927129D01*
X136811591Y-73867518D01*
X136761296Y-73732670D01*
X136761295Y-73732669D01*
X136761293Y-73732665D01*
X136675047Y-73617456D01*
X136675044Y-73617453D01*
X136559835Y-73531207D01*
X136559828Y-73531203D01*
X136424979Y-73480908D01*
X136419459Y-73479604D01*
X136358744Y-73445030D01*
X136326359Y-73383119D01*
X136332586Y-73313528D01*
X136362484Y-73271622D01*
X136361274Y-73270412D01*
X136434127Y-73197559D01*
X136509466Y-73122220D01*
X136509468Y-73122216D01*
X136509471Y-73122214D01*
X136562232Y-73049591D01*
X136629787Y-72956611D01*
X136722720Y-72774220D01*
X136785977Y-72579535D01*
X136818000Y-72377353D01*
X136818000Y-72172649D01*
X136785977Y-71970467D01*
X136722720Y-71775782D01*
X136722718Y-71775779D01*
X136722718Y-71775777D01*
X136689003Y-71709608D01*
X136629787Y-71593391D01*
X136622056Y-71582750D01*
X136509471Y-71427787D01*
X136364713Y-71283029D01*
X136199113Y-71162716D01*
X136199112Y-71162715D01*
X136199110Y-71162714D01*
X136142153Y-71133692D01*
X136016723Y-71069782D01*
X135822034Y-71006523D01*
X135647495Y-70978879D01*
X135619852Y-70974501D01*
X135415148Y-70974501D01*
X135390829Y-70978352D01*
X135212965Y-71006523D01*
X135018276Y-71069782D01*
X134835886Y-71162716D01*
X134670286Y-71283029D01*
X134670282Y-71283033D01*
X134605181Y-71348135D01*
X134543858Y-71381620D01*
X134474166Y-71376636D01*
X134429819Y-71348135D01*
X134364713Y-71283029D01*
X134199113Y-71162716D01*
X134199112Y-71162715D01*
X134199110Y-71162714D01*
X134142153Y-71133692D01*
X134016723Y-71069782D01*
X133822034Y-71006523D01*
X133647495Y-70978879D01*
X133619852Y-70974501D01*
X133415148Y-70974501D01*
X133390829Y-70978352D01*
X133212965Y-71006523D01*
X133018276Y-71069782D01*
X132835886Y-71162716D01*
X132670286Y-71283029D01*
X132525528Y-71427787D01*
X132405215Y-71593387D01*
X132312281Y-71775777D01*
X132249022Y-71970466D01*
X132217000Y-72172649D01*
X106500000Y-72172649D01*
X106500000Y-67384569D01*
X128157000Y-67384569D01*
X128157000Y-67665432D01*
X128188442Y-67944495D01*
X128188445Y-67944513D01*
X128250939Y-68218318D01*
X128250943Y-68218330D01*
X128343700Y-68483412D01*
X128465553Y-68736443D01*
X128465555Y-68736446D01*
X128614977Y-68974249D01*
X128790084Y-69193826D01*
X128988675Y-69392417D01*
X129208252Y-69567524D01*
X129446055Y-69716946D01*
X129699092Y-69838802D01*
X129898180Y-69908466D01*
X129964170Y-69931557D01*
X129964182Y-69931561D01*
X130237991Y-69994056D01*
X130237997Y-69994056D01*
X130238005Y-69994058D01*
X130424047Y-70015019D01*
X130517069Y-70025500D01*
X130517072Y-70025501D01*
X130517075Y-70025501D01*
X130797928Y-70025501D01*
X130797929Y-70025500D01*
X130940555Y-70009430D01*
X131076994Y-69994058D01*
X131076999Y-69994057D01*
X131077009Y-69994056D01*
X131350818Y-69931561D01*
X131615908Y-69838802D01*
X131868945Y-69716946D01*
X132106748Y-69567524D01*
X132326325Y-69392417D01*
X132524916Y-69193826D01*
X132700023Y-68974249D01*
X132849445Y-68736446D01*
X132971301Y-68483409D01*
X133064060Y-68218319D01*
X133126555Y-67944510D01*
X133158000Y-67665426D01*
X133158000Y-67384576D01*
X133126555Y-67105492D01*
X133064060Y-66831683D01*
X132971301Y-66566593D01*
X132849445Y-66313556D01*
X132700023Y-66075753D01*
X132524916Y-65856176D01*
X132326325Y-65657585D01*
X132106748Y-65482478D01*
X131868945Y-65333056D01*
X131868942Y-65333054D01*
X131615911Y-65211201D01*
X131350829Y-65118444D01*
X131350817Y-65118440D01*
X131077012Y-65055946D01*
X131076994Y-65055943D01*
X130797931Y-65024501D01*
X130797925Y-65024501D01*
X130517075Y-65024501D01*
X130517068Y-65024501D01*
X130238005Y-65055943D01*
X130237987Y-65055946D01*
X129964182Y-65118440D01*
X129964170Y-65118444D01*
X129699088Y-65211201D01*
X129446057Y-65333054D01*
X129208253Y-65482477D01*
X128988675Y-65657584D01*
X128790083Y-65856176D01*
X128614976Y-66075754D01*
X128465553Y-66313558D01*
X128343700Y-66566589D01*
X128250943Y-66831671D01*
X128250939Y-66831683D01*
X128188445Y-67105488D01*
X128188442Y-67105506D01*
X128157000Y-67384569D01*
X106500000Y-67384569D01*
X106500000Y-51621153D01*
X111602444Y-51621153D01*
X111602444Y-51984734D01*
X111638081Y-52346574D01*
X111709008Y-52703156D01*
X111709011Y-52703167D01*
X111814558Y-53051109D01*
X111953698Y-53387022D01*
X111953700Y-53387027D01*
X112125084Y-53707664D01*
X112125095Y-53707682D01*
X112327084Y-54009979D01*
X112327094Y-54009993D01*
X112557751Y-54291050D01*
X112814837Y-54548136D01*
X112814842Y-54548140D01*
X112814843Y-54548141D01*
X113095900Y-54778798D01*
X113398212Y-54980797D01*
X113398221Y-54980802D01*
X113398223Y-54980803D01*
X113718860Y-55152187D01*
X113718862Y-55152187D01*
X113718868Y-55152191D01*
X114054780Y-55291330D01*
X114402711Y-55396874D01*
X114402717Y-55396875D01*
X114402720Y-55396876D01*
X114402731Y-55396879D01*
X114759313Y-55467806D01*
X115121150Y-55503444D01*
X115121153Y-55503444D01*
X115484735Y-55503444D01*
X115484738Y-55503444D01*
X115846575Y-55467806D01*
X115915989Y-55453998D01*
X116203156Y-55396879D01*
X116203167Y-55396876D01*
X116203167Y-55396875D01*
X116203177Y-55396874D01*
X116551108Y-55291330D01*
X116887020Y-55152191D01*
X117207676Y-54980797D01*
X117509988Y-54778798D01*
X117791045Y-54548141D01*
X118048141Y-54291045D01*
X118278798Y-54009988D01*
X118480797Y-53707676D01*
X118652191Y-53387020D01*
X118791330Y-53051108D01*
X118896874Y-52703177D01*
X118896876Y-52703167D01*
X118896879Y-52703156D01*
X118967806Y-52346574D01*
X119003444Y-51984738D01*
X119003444Y-51621150D01*
X118967806Y-51259313D01*
X118904164Y-50939358D01*
X118904162Y-50939352D01*
X118899957Y-50918209D01*
X187299500Y-50918209D01*
X187299500Y-51281790D01*
X187335137Y-51643630D01*
X187406064Y-52000212D01*
X187406067Y-52000223D01*
X187511614Y-52348165D01*
X187650754Y-52684078D01*
X187650756Y-52684083D01*
X187822140Y-53004720D01*
X187822151Y-53004738D01*
X188024140Y-53307035D01*
X188024150Y-53307049D01*
X188254807Y-53588106D01*
X188511893Y-53845192D01*
X188511898Y-53845196D01*
X188511899Y-53845197D01*
X188792956Y-54075854D01*
X189095268Y-54277853D01*
X189095277Y-54277858D01*
X189095279Y-54277859D01*
X189415916Y-54449243D01*
X189415918Y-54449243D01*
X189415924Y-54449247D01*
X189751836Y-54588386D01*
X190099767Y-54693930D01*
X190099773Y-54693931D01*
X190099776Y-54693932D01*
X190099787Y-54693935D01*
X190456369Y-54764862D01*
X190818206Y-54800500D01*
X190818209Y-54800500D01*
X191181791Y-54800500D01*
X191181794Y-54800500D01*
X191543631Y-54764862D01*
X191613045Y-54751054D01*
X191900212Y-54693935D01*
X191900223Y-54693932D01*
X191900223Y-54693931D01*
X191900233Y-54693930D01*
X192248164Y-54588386D01*
X192584076Y-54449247D01*
X192904732Y-54277853D01*
X193207044Y-54075854D01*
X193488101Y-53845197D01*
X193745197Y-53588101D01*
X193975854Y-53307044D01*
X194177853Y-53004732D01*
X194349247Y-52684076D01*
X194488386Y-52348164D01*
X194593930Y-52000233D01*
X194593932Y-52000223D01*
X194593935Y-52000212D01*
X194664862Y-51643630D01*
X194700500Y-51281790D01*
X194700500Y-50918209D01*
X194698974Y-50902720D01*
X194664862Y-50556369D01*
X194664546Y-50554778D01*
X194593935Y-50199787D01*
X194593932Y-50199776D01*
X194593931Y-50199773D01*
X194593930Y-50199767D01*
X194488386Y-49851836D01*
X194349247Y-49515924D01*
X194177853Y-49195268D01*
X193975854Y-48892956D01*
X193745197Y-48611899D01*
X193745196Y-48611898D01*
X193745192Y-48611893D01*
X193488106Y-48354807D01*
X193207049Y-48124150D01*
X193207048Y-48124149D01*
X193207044Y-48124146D01*
X192904732Y-47922147D01*
X192904727Y-47922144D01*
X192904720Y-47922140D01*
X192584083Y-47750756D01*
X192584078Y-47750754D01*
X192248165Y-47611614D01*
X191900223Y-47506067D01*
X191900212Y-47506064D01*
X191543630Y-47435137D01*
X191271111Y-47408296D01*
X191181794Y-47399500D01*
X190818206Y-47399500D01*
X190735679Y-47407628D01*
X190456369Y-47435137D01*
X190099787Y-47506064D01*
X190099776Y-47506067D01*
X189751834Y-47611614D01*
X189415921Y-47750754D01*
X189415916Y-47750756D01*
X189095279Y-47922140D01*
X189095261Y-47922151D01*
X188792964Y-48124140D01*
X188792950Y-48124150D01*
X188511893Y-48354807D01*
X188254807Y-48611893D01*
X188024150Y-48892950D01*
X188024140Y-48892964D01*
X187822151Y-49195261D01*
X187822140Y-49195279D01*
X187650756Y-49515916D01*
X187650754Y-49515921D01*
X187511614Y-49851834D01*
X187406067Y-50199776D01*
X187406064Y-50199787D01*
X187335137Y-50556369D01*
X187307628Y-50835679D01*
X187301026Y-50902718D01*
X187299500Y-50918209D01*
X118899957Y-50918209D01*
X118896874Y-50902711D01*
X118791330Y-50554780D01*
X118652191Y-50218868D01*
X118641981Y-50199767D01*
X118480803Y-49898223D01*
X118480802Y-49898221D01*
X118480797Y-49898212D01*
X118278798Y-49595900D01*
X118048141Y-49314843D01*
X118048140Y-49314842D01*
X118048136Y-49314837D01*
X117791050Y-49057751D01*
X117509993Y-48827094D01*
X117509992Y-48827093D01*
X117509988Y-48827090D01*
X117207676Y-48625091D01*
X117207671Y-48625088D01*
X117207664Y-48625084D01*
X116887027Y-48453700D01*
X116887022Y-48453698D01*
X116551109Y-48314558D01*
X116203167Y-48209011D01*
X116203156Y-48209008D01*
X115846574Y-48138081D01*
X115574055Y-48111240D01*
X115484738Y-48102444D01*
X115121150Y-48102444D01*
X115038623Y-48110572D01*
X114759313Y-48138081D01*
X114402731Y-48209008D01*
X114402720Y-48209011D01*
X114054778Y-48314558D01*
X113718865Y-48453698D01*
X113718860Y-48453700D01*
X113398223Y-48625084D01*
X113398205Y-48625095D01*
X113095908Y-48827084D01*
X113095894Y-48827094D01*
X112814837Y-49057751D01*
X112557751Y-49314837D01*
X112327094Y-49595894D01*
X112327084Y-49595908D01*
X112125095Y-49898205D01*
X112125084Y-49898223D01*
X111953700Y-50218860D01*
X111953698Y-50218865D01*
X111814558Y-50554778D01*
X111709011Y-50902720D01*
X111709008Y-50902731D01*
X111638081Y-51259313D01*
X111602444Y-51621153D01*
X106500000Y-51621153D01*
X106500000Y-45124668D01*
X106519685Y-45057629D01*
X106572489Y-45011874D01*
X106624665Y-45000670D01*
X199376670Y-45499336D01*
G37*
%TD.AperFunction*%
%TD*%
M02*
