%TF.GenerationSoftware,KiCad,Pcbnew,9.0.1*%
%TF.CreationDate,2025-05-14T18:29:24+05:30*%
%TF.ProjectId,usb,7573622e-6b69-4636-9164-5f7063625858,rev?*%
%TF.SameCoordinates,Original*%
%TF.FileFunction,Legend,Top*%
%TF.FilePolarity,Positive*%
%FSLAX46Y46*%
G04 Gerber Fmt 4.6, Leading zero omitted, Abs format (unit mm)*
G04 Created by KiCad (PCBNEW 9.0.1) date 2025-05-14 18:29:24*
%MOMM*%
%LPD*%
G01*
G04 APERTURE LIST*
%ADD10C,0.150000*%
%ADD11C,0.120000*%
G04 APERTURE END LIST*
D10*
X156584819Y-70786905D02*
X157394342Y-70786905D01*
X157394342Y-70786905D02*
X157489580Y-70739286D01*
X157489580Y-70739286D02*
X157537200Y-70691667D01*
X157537200Y-70691667D02*
X157584819Y-70596429D01*
X157584819Y-70596429D02*
X157584819Y-70405953D01*
X157584819Y-70405953D02*
X157537200Y-70310715D01*
X157537200Y-70310715D02*
X157489580Y-70263096D01*
X157489580Y-70263096D02*
X157394342Y-70215477D01*
X157394342Y-70215477D02*
X156584819Y-70215477D01*
X157584819Y-69215477D02*
X157584819Y-69786905D01*
X157584819Y-69501191D02*
X156584819Y-69501191D01*
X156584819Y-69501191D02*
X156727676Y-69596429D01*
X156727676Y-69596429D02*
X156822914Y-69691667D01*
X156822914Y-69691667D02*
X156870533Y-69786905D01*
X151113333Y-60704581D02*
X151065714Y-60752201D01*
X151065714Y-60752201D02*
X150922857Y-60799820D01*
X150922857Y-60799820D02*
X150827619Y-60799820D01*
X150827619Y-60799820D02*
X150684762Y-60752201D01*
X150684762Y-60752201D02*
X150589524Y-60656962D01*
X150589524Y-60656962D02*
X150541905Y-60561724D01*
X150541905Y-60561724D02*
X150494286Y-60371248D01*
X150494286Y-60371248D02*
X150494286Y-60228391D01*
X150494286Y-60228391D02*
X150541905Y-60037915D01*
X150541905Y-60037915D02*
X150589524Y-59942677D01*
X150589524Y-59942677D02*
X150684762Y-59847439D01*
X150684762Y-59847439D02*
X150827619Y-59799820D01*
X150827619Y-59799820D02*
X150922857Y-59799820D01*
X150922857Y-59799820D02*
X151065714Y-59847439D01*
X151065714Y-59847439D02*
X151113333Y-59895058D01*
X151970476Y-60133153D02*
X151970476Y-60799820D01*
X151732381Y-59752201D02*
X151494286Y-60466486D01*
X151494286Y-60466486D02*
X152113333Y-60466486D01*
X155113333Y-60204581D02*
X155065714Y-60252201D01*
X155065714Y-60252201D02*
X154922857Y-60299820D01*
X154922857Y-60299820D02*
X154827619Y-60299820D01*
X154827619Y-60299820D02*
X154684762Y-60252201D01*
X154684762Y-60252201D02*
X154589524Y-60156962D01*
X154589524Y-60156962D02*
X154541905Y-60061724D01*
X154541905Y-60061724D02*
X154494286Y-59871248D01*
X154494286Y-59871248D02*
X154494286Y-59728391D01*
X154494286Y-59728391D02*
X154541905Y-59537915D01*
X154541905Y-59537915D02*
X154589524Y-59442677D01*
X154589524Y-59442677D02*
X154684762Y-59347439D01*
X154684762Y-59347439D02*
X154827619Y-59299820D01*
X154827619Y-59299820D02*
X154922857Y-59299820D01*
X154922857Y-59299820D02*
X155065714Y-59347439D01*
X155065714Y-59347439D02*
X155113333Y-59395058D01*
X156018095Y-59299820D02*
X155541905Y-59299820D01*
X155541905Y-59299820D02*
X155494286Y-59776010D01*
X155494286Y-59776010D02*
X155541905Y-59728391D01*
X155541905Y-59728391D02*
X155637143Y-59680772D01*
X155637143Y-59680772D02*
X155875238Y-59680772D01*
X155875238Y-59680772D02*
X155970476Y-59728391D01*
X155970476Y-59728391D02*
X156018095Y-59776010D01*
X156018095Y-59776010D02*
X156065714Y-59871248D01*
X156065714Y-59871248D02*
X156065714Y-60109343D01*
X156065714Y-60109343D02*
X156018095Y-60204581D01*
X156018095Y-60204581D02*
X155970476Y-60252201D01*
X155970476Y-60252201D02*
X155875238Y-60299820D01*
X155875238Y-60299820D02*
X155637143Y-60299820D01*
X155637143Y-60299820D02*
X155541905Y-60252201D01*
X155541905Y-60252201D02*
X155494286Y-60204581D01*
X141003809Y-65053629D02*
X141003809Y-65529820D01*
X140670476Y-64529820D02*
X141003809Y-65053629D01*
X141003809Y-65053629D02*
X141337142Y-64529820D01*
X142194285Y-65529820D02*
X141622857Y-65529820D01*
X141908571Y-65529820D02*
X141908571Y-64529820D01*
X141908571Y-64529820D02*
X141813333Y-64672677D01*
X141813333Y-64672677D02*
X141718095Y-64767915D01*
X141718095Y-64767915D02*
X141622857Y-64815534D01*
X169759819Y-64311905D02*
X170569342Y-64311905D01*
X170569342Y-64311905D02*
X170664580Y-64264286D01*
X170664580Y-64264286D02*
X170712200Y-64216667D01*
X170712200Y-64216667D02*
X170759819Y-64121429D01*
X170759819Y-64121429D02*
X170759819Y-63930953D01*
X170759819Y-63930953D02*
X170712200Y-63835715D01*
X170712200Y-63835715D02*
X170664580Y-63788096D01*
X170664580Y-63788096D02*
X170569342Y-63740477D01*
X170569342Y-63740477D02*
X169759819Y-63740477D01*
X169855057Y-63311905D02*
X169807438Y-63264286D01*
X169807438Y-63264286D02*
X169759819Y-63169048D01*
X169759819Y-63169048D02*
X169759819Y-62930953D01*
X169759819Y-62930953D02*
X169807438Y-62835715D01*
X169807438Y-62835715D02*
X169855057Y-62788096D01*
X169855057Y-62788096D02*
X169950295Y-62740477D01*
X169950295Y-62740477D02*
X170045533Y-62740477D01*
X170045533Y-62740477D02*
X170188390Y-62788096D01*
X170188390Y-62788096D02*
X170759819Y-63359524D01*
X170759819Y-63359524D02*
X170759819Y-62740477D01*
X165396666Y-76339820D02*
X165396666Y-77054105D01*
X165396666Y-77054105D02*
X165349047Y-77196962D01*
X165349047Y-77196962D02*
X165253809Y-77292201D01*
X165253809Y-77292201D02*
X165110952Y-77339820D01*
X165110952Y-77339820D02*
X165015714Y-77339820D01*
X165825238Y-76435058D02*
X165872857Y-76387439D01*
X165872857Y-76387439D02*
X165968095Y-76339820D01*
X165968095Y-76339820D02*
X166206190Y-76339820D01*
X166206190Y-76339820D02*
X166301428Y-76387439D01*
X166301428Y-76387439D02*
X166349047Y-76435058D01*
X166349047Y-76435058D02*
X166396666Y-76530296D01*
X166396666Y-76530296D02*
X166396666Y-76625534D01*
X166396666Y-76625534D02*
X166349047Y-76768391D01*
X166349047Y-76768391D02*
X165777619Y-77339820D01*
X165777619Y-77339820D02*
X166396666Y-77339820D01*
X162269580Y-57717858D02*
X162317200Y-57765477D01*
X162317200Y-57765477D02*
X162364819Y-57908334D01*
X162364819Y-57908334D02*
X162364819Y-58003572D01*
X162364819Y-58003572D02*
X162317200Y-58146429D01*
X162317200Y-58146429D02*
X162221961Y-58241667D01*
X162221961Y-58241667D02*
X162126723Y-58289286D01*
X162126723Y-58289286D02*
X161936247Y-58336905D01*
X161936247Y-58336905D02*
X161793390Y-58336905D01*
X161793390Y-58336905D02*
X161602914Y-58289286D01*
X161602914Y-58289286D02*
X161507676Y-58241667D01*
X161507676Y-58241667D02*
X161412438Y-58146429D01*
X161412438Y-58146429D02*
X161364819Y-58003572D01*
X161364819Y-58003572D02*
X161364819Y-57908334D01*
X161364819Y-57908334D02*
X161412438Y-57765477D01*
X161412438Y-57765477D02*
X161460057Y-57717858D01*
X162364819Y-56765477D02*
X162364819Y-57336905D01*
X162364819Y-57051191D02*
X161364819Y-57051191D01*
X161364819Y-57051191D02*
X161507676Y-57146429D01*
X161507676Y-57146429D02*
X161602914Y-57241667D01*
X161602914Y-57241667D02*
X161650533Y-57336905D01*
X161364819Y-56146429D02*
X161364819Y-56051191D01*
X161364819Y-56051191D02*
X161412438Y-55955953D01*
X161412438Y-55955953D02*
X161460057Y-55908334D01*
X161460057Y-55908334D02*
X161555295Y-55860715D01*
X161555295Y-55860715D02*
X161745771Y-55813096D01*
X161745771Y-55813096D02*
X161983866Y-55813096D01*
X161983866Y-55813096D02*
X162174342Y-55860715D01*
X162174342Y-55860715D02*
X162269580Y-55908334D01*
X162269580Y-55908334D02*
X162317200Y-55955953D01*
X162317200Y-55955953D02*
X162364819Y-56051191D01*
X162364819Y-56051191D02*
X162364819Y-56146429D01*
X162364819Y-56146429D02*
X162317200Y-56241667D01*
X162317200Y-56241667D02*
X162269580Y-56289286D01*
X162269580Y-56289286D02*
X162174342Y-56336905D01*
X162174342Y-56336905D02*
X161983866Y-56384524D01*
X161983866Y-56384524D02*
X161745771Y-56384524D01*
X161745771Y-56384524D02*
X161555295Y-56336905D01*
X161555295Y-56336905D02*
X161460057Y-56289286D01*
X161460057Y-56289286D02*
X161412438Y-56241667D01*
X161412438Y-56241667D02*
X161364819Y-56146429D01*
X166769580Y-57241667D02*
X166817200Y-57289286D01*
X166817200Y-57289286D02*
X166864819Y-57432143D01*
X166864819Y-57432143D02*
X166864819Y-57527381D01*
X166864819Y-57527381D02*
X166817200Y-57670238D01*
X166817200Y-57670238D02*
X166721961Y-57765476D01*
X166721961Y-57765476D02*
X166626723Y-57813095D01*
X166626723Y-57813095D02*
X166436247Y-57860714D01*
X166436247Y-57860714D02*
X166293390Y-57860714D01*
X166293390Y-57860714D02*
X166102914Y-57813095D01*
X166102914Y-57813095D02*
X166007676Y-57765476D01*
X166007676Y-57765476D02*
X165912438Y-57670238D01*
X165912438Y-57670238D02*
X165864819Y-57527381D01*
X165864819Y-57527381D02*
X165864819Y-57432143D01*
X165864819Y-57432143D02*
X165912438Y-57289286D01*
X165912438Y-57289286D02*
X165960057Y-57241667D01*
X166864819Y-56765476D02*
X166864819Y-56575000D01*
X166864819Y-56575000D02*
X166817200Y-56479762D01*
X166817200Y-56479762D02*
X166769580Y-56432143D01*
X166769580Y-56432143D02*
X166626723Y-56336905D01*
X166626723Y-56336905D02*
X166436247Y-56289286D01*
X166436247Y-56289286D02*
X166055295Y-56289286D01*
X166055295Y-56289286D02*
X165960057Y-56336905D01*
X165960057Y-56336905D02*
X165912438Y-56384524D01*
X165912438Y-56384524D02*
X165864819Y-56479762D01*
X165864819Y-56479762D02*
X165864819Y-56670238D01*
X165864819Y-56670238D02*
X165912438Y-56765476D01*
X165912438Y-56765476D02*
X165960057Y-56813095D01*
X165960057Y-56813095D02*
X166055295Y-56860714D01*
X166055295Y-56860714D02*
X166293390Y-56860714D01*
X166293390Y-56860714D02*
X166388628Y-56813095D01*
X166388628Y-56813095D02*
X166436247Y-56765476D01*
X166436247Y-56765476D02*
X166483866Y-56670238D01*
X166483866Y-56670238D02*
X166483866Y-56479762D01*
X166483866Y-56479762D02*
X166436247Y-56384524D01*
X166436247Y-56384524D02*
X166388628Y-56336905D01*
X166388628Y-56336905D02*
X166293390Y-56289286D01*
X170269580Y-57241667D02*
X170317200Y-57289286D01*
X170317200Y-57289286D02*
X170364819Y-57432143D01*
X170364819Y-57432143D02*
X170364819Y-57527381D01*
X170364819Y-57527381D02*
X170317200Y-57670238D01*
X170317200Y-57670238D02*
X170221961Y-57765476D01*
X170221961Y-57765476D02*
X170126723Y-57813095D01*
X170126723Y-57813095D02*
X169936247Y-57860714D01*
X169936247Y-57860714D02*
X169793390Y-57860714D01*
X169793390Y-57860714D02*
X169602914Y-57813095D01*
X169602914Y-57813095D02*
X169507676Y-57765476D01*
X169507676Y-57765476D02*
X169412438Y-57670238D01*
X169412438Y-57670238D02*
X169364819Y-57527381D01*
X169364819Y-57527381D02*
X169364819Y-57432143D01*
X169364819Y-57432143D02*
X169412438Y-57289286D01*
X169412438Y-57289286D02*
X169460057Y-57241667D01*
X169793390Y-56670238D02*
X169745771Y-56765476D01*
X169745771Y-56765476D02*
X169698152Y-56813095D01*
X169698152Y-56813095D02*
X169602914Y-56860714D01*
X169602914Y-56860714D02*
X169555295Y-56860714D01*
X169555295Y-56860714D02*
X169460057Y-56813095D01*
X169460057Y-56813095D02*
X169412438Y-56765476D01*
X169412438Y-56765476D02*
X169364819Y-56670238D01*
X169364819Y-56670238D02*
X169364819Y-56479762D01*
X169364819Y-56479762D02*
X169412438Y-56384524D01*
X169412438Y-56384524D02*
X169460057Y-56336905D01*
X169460057Y-56336905D02*
X169555295Y-56289286D01*
X169555295Y-56289286D02*
X169602914Y-56289286D01*
X169602914Y-56289286D02*
X169698152Y-56336905D01*
X169698152Y-56336905D02*
X169745771Y-56384524D01*
X169745771Y-56384524D02*
X169793390Y-56479762D01*
X169793390Y-56479762D02*
X169793390Y-56670238D01*
X169793390Y-56670238D02*
X169841009Y-56765476D01*
X169841009Y-56765476D02*
X169888628Y-56813095D01*
X169888628Y-56813095D02*
X169983866Y-56860714D01*
X169983866Y-56860714D02*
X170174342Y-56860714D01*
X170174342Y-56860714D02*
X170269580Y-56813095D01*
X170269580Y-56813095D02*
X170317200Y-56765476D01*
X170317200Y-56765476D02*
X170364819Y-56670238D01*
X170364819Y-56670238D02*
X170364819Y-56479762D01*
X170364819Y-56479762D02*
X170317200Y-56384524D01*
X170317200Y-56384524D02*
X170269580Y-56336905D01*
X170269580Y-56336905D02*
X170174342Y-56289286D01*
X170174342Y-56289286D02*
X169983866Y-56289286D01*
X169983866Y-56289286D02*
X169888628Y-56336905D01*
X169888628Y-56336905D02*
X169841009Y-56384524D01*
X169841009Y-56384524D02*
X169793390Y-56479762D01*
X174769580Y-61141667D02*
X174817200Y-61189286D01*
X174817200Y-61189286D02*
X174864819Y-61332143D01*
X174864819Y-61332143D02*
X174864819Y-61427381D01*
X174864819Y-61427381D02*
X174817200Y-61570238D01*
X174817200Y-61570238D02*
X174721961Y-61665476D01*
X174721961Y-61665476D02*
X174626723Y-61713095D01*
X174626723Y-61713095D02*
X174436247Y-61760714D01*
X174436247Y-61760714D02*
X174293390Y-61760714D01*
X174293390Y-61760714D02*
X174102914Y-61713095D01*
X174102914Y-61713095D02*
X174007676Y-61665476D01*
X174007676Y-61665476D02*
X173912438Y-61570238D01*
X173912438Y-61570238D02*
X173864819Y-61427381D01*
X173864819Y-61427381D02*
X173864819Y-61332143D01*
X173864819Y-61332143D02*
X173912438Y-61189286D01*
X173912438Y-61189286D02*
X173960057Y-61141667D01*
X173864819Y-60808333D02*
X173864819Y-60141667D01*
X173864819Y-60141667D02*
X174864819Y-60570238D01*
X170769580Y-70241667D02*
X170817200Y-70289286D01*
X170817200Y-70289286D02*
X170864819Y-70432143D01*
X170864819Y-70432143D02*
X170864819Y-70527381D01*
X170864819Y-70527381D02*
X170817200Y-70670238D01*
X170817200Y-70670238D02*
X170721961Y-70765476D01*
X170721961Y-70765476D02*
X170626723Y-70813095D01*
X170626723Y-70813095D02*
X170436247Y-70860714D01*
X170436247Y-70860714D02*
X170293390Y-70860714D01*
X170293390Y-70860714D02*
X170102914Y-70813095D01*
X170102914Y-70813095D02*
X170007676Y-70765476D01*
X170007676Y-70765476D02*
X169912438Y-70670238D01*
X169912438Y-70670238D02*
X169864819Y-70527381D01*
X169864819Y-70527381D02*
X169864819Y-70432143D01*
X169864819Y-70432143D02*
X169912438Y-70289286D01*
X169912438Y-70289286D02*
X169960057Y-70241667D01*
X169864819Y-69384524D02*
X169864819Y-69575000D01*
X169864819Y-69575000D02*
X169912438Y-69670238D01*
X169912438Y-69670238D02*
X169960057Y-69717857D01*
X169960057Y-69717857D02*
X170102914Y-69813095D01*
X170102914Y-69813095D02*
X170293390Y-69860714D01*
X170293390Y-69860714D02*
X170674342Y-69860714D01*
X170674342Y-69860714D02*
X170769580Y-69813095D01*
X170769580Y-69813095D02*
X170817200Y-69765476D01*
X170817200Y-69765476D02*
X170864819Y-69670238D01*
X170864819Y-69670238D02*
X170864819Y-69479762D01*
X170864819Y-69479762D02*
X170817200Y-69384524D01*
X170817200Y-69384524D02*
X170769580Y-69336905D01*
X170769580Y-69336905D02*
X170674342Y-69289286D01*
X170674342Y-69289286D02*
X170436247Y-69289286D01*
X170436247Y-69289286D02*
X170341009Y-69336905D01*
X170341009Y-69336905D02*
X170293390Y-69384524D01*
X170293390Y-69384524D02*
X170245771Y-69479762D01*
X170245771Y-69479762D02*
X170245771Y-69670238D01*
X170245771Y-69670238D02*
X170293390Y-69765476D01*
X170293390Y-69765476D02*
X170341009Y-69813095D01*
X170341009Y-69813095D02*
X170436247Y-69860714D01*
X152113333Y-63204581D02*
X152065714Y-63252201D01*
X152065714Y-63252201D02*
X151922857Y-63299820D01*
X151922857Y-63299820D02*
X151827619Y-63299820D01*
X151827619Y-63299820D02*
X151684762Y-63252201D01*
X151684762Y-63252201D02*
X151589524Y-63156962D01*
X151589524Y-63156962D02*
X151541905Y-63061724D01*
X151541905Y-63061724D02*
X151494286Y-62871248D01*
X151494286Y-62871248D02*
X151494286Y-62728391D01*
X151494286Y-62728391D02*
X151541905Y-62537915D01*
X151541905Y-62537915D02*
X151589524Y-62442677D01*
X151589524Y-62442677D02*
X151684762Y-62347439D01*
X151684762Y-62347439D02*
X151827619Y-62299820D01*
X151827619Y-62299820D02*
X151922857Y-62299820D01*
X151922857Y-62299820D02*
X152065714Y-62347439D01*
X152065714Y-62347439D02*
X152113333Y-62395058D01*
X152446667Y-62299820D02*
X153065714Y-62299820D01*
X153065714Y-62299820D02*
X152732381Y-62680772D01*
X152732381Y-62680772D02*
X152875238Y-62680772D01*
X152875238Y-62680772D02*
X152970476Y-62728391D01*
X152970476Y-62728391D02*
X153018095Y-62776010D01*
X153018095Y-62776010D02*
X153065714Y-62871248D01*
X153065714Y-62871248D02*
X153065714Y-63109343D01*
X153065714Y-63109343D02*
X153018095Y-63204581D01*
X153018095Y-63204581D02*
X152970476Y-63252201D01*
X152970476Y-63252201D02*
X152875238Y-63299820D01*
X152875238Y-63299820D02*
X152589524Y-63299820D01*
X152589524Y-63299820D02*
X152494286Y-63252201D01*
X152494286Y-63252201D02*
X152446667Y-63204581D01*
X142113333Y-69704581D02*
X142065714Y-69752201D01*
X142065714Y-69752201D02*
X141922857Y-69799820D01*
X141922857Y-69799820D02*
X141827619Y-69799820D01*
X141827619Y-69799820D02*
X141684762Y-69752201D01*
X141684762Y-69752201D02*
X141589524Y-69656962D01*
X141589524Y-69656962D02*
X141541905Y-69561724D01*
X141541905Y-69561724D02*
X141494286Y-69371248D01*
X141494286Y-69371248D02*
X141494286Y-69228391D01*
X141494286Y-69228391D02*
X141541905Y-69037915D01*
X141541905Y-69037915D02*
X141589524Y-68942677D01*
X141589524Y-68942677D02*
X141684762Y-68847439D01*
X141684762Y-68847439D02*
X141827619Y-68799820D01*
X141827619Y-68799820D02*
X141922857Y-68799820D01*
X141922857Y-68799820D02*
X142065714Y-68847439D01*
X142065714Y-68847439D02*
X142113333Y-68895058D01*
X142494286Y-68895058D02*
X142541905Y-68847439D01*
X142541905Y-68847439D02*
X142637143Y-68799820D01*
X142637143Y-68799820D02*
X142875238Y-68799820D01*
X142875238Y-68799820D02*
X142970476Y-68847439D01*
X142970476Y-68847439D02*
X143018095Y-68895058D01*
X143018095Y-68895058D02*
X143065714Y-68990296D01*
X143065714Y-68990296D02*
X143065714Y-69085534D01*
X143065714Y-69085534D02*
X143018095Y-69228391D01*
X143018095Y-69228391D02*
X142446667Y-69799820D01*
X142446667Y-69799820D02*
X143065714Y-69799820D01*
X143269580Y-75191667D02*
X143317200Y-75239286D01*
X143317200Y-75239286D02*
X143364819Y-75382143D01*
X143364819Y-75382143D02*
X143364819Y-75477381D01*
X143364819Y-75477381D02*
X143317200Y-75620238D01*
X143317200Y-75620238D02*
X143221961Y-75715476D01*
X143221961Y-75715476D02*
X143126723Y-75763095D01*
X143126723Y-75763095D02*
X142936247Y-75810714D01*
X142936247Y-75810714D02*
X142793390Y-75810714D01*
X142793390Y-75810714D02*
X142602914Y-75763095D01*
X142602914Y-75763095D02*
X142507676Y-75715476D01*
X142507676Y-75715476D02*
X142412438Y-75620238D01*
X142412438Y-75620238D02*
X142364819Y-75477381D01*
X142364819Y-75477381D02*
X142364819Y-75382143D01*
X142364819Y-75382143D02*
X142412438Y-75239286D01*
X142412438Y-75239286D02*
X142460057Y-75191667D01*
X143364819Y-74239286D02*
X143364819Y-74810714D01*
X143364819Y-74525000D02*
X142364819Y-74525000D01*
X142364819Y-74525000D02*
X142507676Y-74620238D01*
X142507676Y-74620238D02*
X142602914Y-74715476D01*
X142602914Y-74715476D02*
X142650533Y-74810714D01*
X114541039Y-48057763D02*
X114541039Y-47057763D01*
X114541039Y-47533953D02*
X115112467Y-47533953D01*
X115112467Y-48057763D02*
X115112467Y-47057763D01*
X116112467Y-48057763D02*
X115541039Y-48057763D01*
X115826753Y-48057763D02*
X115826753Y-47057763D01*
X115826753Y-47057763D02*
X115731515Y-47200620D01*
X115731515Y-47200620D02*
X115636277Y-47295858D01*
X115636277Y-47295858D02*
X115541039Y-47343477D01*
X190238095Y-47354819D02*
X190238095Y-46354819D01*
X190238095Y-46831009D02*
X190809523Y-46831009D01*
X190809523Y-47354819D02*
X190809523Y-46354819D01*
X191238095Y-46450057D02*
X191285714Y-46402438D01*
X191285714Y-46402438D02*
X191380952Y-46354819D01*
X191380952Y-46354819D02*
X191619047Y-46354819D01*
X191619047Y-46354819D02*
X191714285Y-46402438D01*
X191714285Y-46402438D02*
X191761904Y-46450057D01*
X191761904Y-46450057D02*
X191809523Y-46545295D01*
X191809523Y-46545295D02*
X191809523Y-46640533D01*
X191809523Y-46640533D02*
X191761904Y-46783390D01*
X191761904Y-46783390D02*
X191190476Y-47354819D01*
X191190476Y-47354819D02*
X191809523Y-47354819D01*
X113738095Y-97254819D02*
X113738095Y-96254819D01*
X113738095Y-96731009D02*
X114309523Y-96731009D01*
X114309523Y-97254819D02*
X114309523Y-96254819D01*
X114690476Y-96254819D02*
X115309523Y-96254819D01*
X115309523Y-96254819D02*
X114976190Y-96635771D01*
X114976190Y-96635771D02*
X115119047Y-96635771D01*
X115119047Y-96635771D02*
X115214285Y-96683390D01*
X115214285Y-96683390D02*
X115261904Y-96731009D01*
X115261904Y-96731009D02*
X115309523Y-96826247D01*
X115309523Y-96826247D02*
X115309523Y-97064342D01*
X115309523Y-97064342D02*
X115261904Y-97159580D01*
X115261904Y-97159580D02*
X115214285Y-97207200D01*
X115214285Y-97207200D02*
X115119047Y-97254819D01*
X115119047Y-97254819D02*
X114833333Y-97254819D01*
X114833333Y-97254819D02*
X114738095Y-97207200D01*
X114738095Y-97207200D02*
X114690476Y-97159580D01*
X192041039Y-97057763D02*
X192041039Y-96057763D01*
X192041039Y-96533953D02*
X192612467Y-96533953D01*
X192612467Y-97057763D02*
X192612467Y-96057763D01*
X193517229Y-96391096D02*
X193517229Y-97057763D01*
X193279134Y-96010144D02*
X193041039Y-96724429D01*
X193041039Y-96724429D02*
X193660086Y-96724429D01*
X127684166Y-81879820D02*
X127684166Y-82594105D01*
X127684166Y-82594105D02*
X127636547Y-82736962D01*
X127636547Y-82736962D02*
X127541309Y-82832201D01*
X127541309Y-82832201D02*
X127398452Y-82879820D01*
X127398452Y-82879820D02*
X127303214Y-82879820D01*
X128684166Y-82879820D02*
X128112738Y-82879820D01*
X128398452Y-82879820D02*
X128398452Y-81879820D01*
X128398452Y-81879820D02*
X128303214Y-82022677D01*
X128303214Y-82022677D02*
X128207976Y-82117915D01*
X128207976Y-82117915D02*
X128112738Y-82165534D01*
D11*
%TO.C,U1*%
X156290000Y-70025001D02*
X156290000Y-68075001D01*
X156290000Y-70025001D02*
X156290000Y-71975001D01*
X146170000Y-70025001D02*
X146170000Y-68075001D01*
X146170000Y-70025001D02*
X146170000Y-71975001D01*
X156565000Y-67565001D02*
X156235000Y-67325001D01*
X156565000Y-67085001D01*
X156565000Y-67565001D01*
G36*
X156565000Y-67565001D02*
G01*
X156235000Y-67325001D01*
X156565000Y-67085001D01*
X156565000Y-67565001D01*
G37*
%TO.C,C4*%
X151018748Y-62760001D02*
X151541252Y-62760001D01*
X151018748Y-61290001D02*
X151541252Y-61290001D01*
%TO.C,C5*%
X155018748Y-62260001D02*
X155541252Y-62260001D01*
X155018748Y-60790001D02*
X155541252Y-60790001D01*
%TO.C,Y1*%
X135580000Y-64075001D02*
X148180000Y-64075001D01*
X148180000Y-58975001D02*
X135580000Y-58975001D01*
X148180000Y-64075001D02*
X148180000Y-58975001D01*
%TO.C,U2*%
X169465000Y-63550001D02*
X169465000Y-61600001D01*
X169465000Y-63550001D02*
X169465000Y-65500001D01*
X159345000Y-63550001D02*
X159345000Y-61600001D01*
X159345000Y-63550001D02*
X159345000Y-65500001D01*
X169740000Y-61090001D02*
X169410000Y-60850001D01*
X169740000Y-60610001D01*
X169740000Y-61090001D01*
G36*
X169740000Y-61090001D02*
G01*
X169410000Y-60850001D01*
X169740000Y-60610001D01*
X169740000Y-61090001D01*
G37*
%TO.C,J2*%
X150245000Y-77825001D02*
X181215000Y-77825001D01*
X150245000Y-87405001D02*
X150245000Y-77825001D01*
X171020000Y-76930663D02*
X171520000Y-76930663D01*
X171270000Y-77363676D02*
X171020000Y-76930663D01*
X171520000Y-76930663D02*
X171270000Y-77363676D01*
X181215000Y-77825001D02*
X181215000Y-87405001D01*
%TO.C,C10*%
X160965000Y-56813749D02*
X160965000Y-57336253D01*
X159495000Y-56813749D02*
X159495000Y-57336253D01*
%TO.C,C9*%
X165465000Y-56813749D02*
X165465000Y-57336253D01*
X163995000Y-56813749D02*
X163995000Y-57336253D01*
%TO.C,C8*%
X168965000Y-56813749D02*
X168965000Y-57336253D01*
X167495000Y-56813749D02*
X167495000Y-57336253D01*
%TO.C,C7*%
X173465000Y-60713749D02*
X173465000Y-61236253D01*
X171995000Y-60713749D02*
X171995000Y-61236253D01*
%TO.C,C6*%
X169465000Y-69813749D02*
X169465000Y-70336253D01*
X167995000Y-69813749D02*
X167995000Y-70336253D01*
%TO.C,C3*%
X152018748Y-63790001D02*
X152541252Y-63790001D01*
X152018748Y-65260001D02*
X152541252Y-65260001D01*
%TO.C,C2*%
X142018748Y-70290001D02*
X142541252Y-70290001D01*
X142018748Y-71760001D02*
X142541252Y-71760001D01*
%TO.C,C1*%
X141965000Y-74763749D02*
X141965000Y-75286253D01*
X140495000Y-74763749D02*
X140495000Y-75286253D01*
%TO.C,J1*%
X137567500Y-75275001D02*
X137567500Y-74275001D01*
X137567500Y-74275001D02*
X137067500Y-74775001D01*
X137067500Y-74775001D02*
X137567500Y-75275001D01*
X136867500Y-79635001D02*
X133117500Y-79635001D01*
X136867500Y-67415001D02*
X136867500Y-79635001D01*
X136867500Y-67415001D02*
X133117500Y-67415001D01*
X120247500Y-79635001D02*
X128217500Y-79635001D01*
X120247500Y-67415001D02*
X128217500Y-67415001D01*
X120247500Y-67415001D02*
X120247500Y-79635001D01*
%TD*%
M02*
